<?xml version="1.0" encoding="UTF-8"?>
<svg xmlns="http://www.w3.org/2000/svg" version="1.1" width="500" height="500" viewBox="0 0 500 500"><rect x="0" y="0" width="500" height="500" fill="#ffffff"/><g transform="scale(23.81)"><g transform="translate(0,0)"><path fill-rule="evenodd" d="M8 0L8 4L9 4L9 5L8 5L8 7L9 7L9 5L10 5L10 7L11 7L11 3L12 3L12 8L11 8L11 9L10 9L10 11L9 11L9 9L7 9L7 8L4 8L4 9L2 9L2 8L0 8L0 9L2 9L2 10L0 10L0 13L2 13L2 12L3 12L3 13L5 13L5 12L6 12L6 13L8 13L8 14L9 14L9 12L10 12L10 11L11 11L11 13L12 13L12 12L14 12L14 11L11 11L11 9L13 9L13 2L12 2L12 1L13 1L13 0L12 0L12 1L11 1L11 2L10 2L10 1L9 1L9 0ZM9 3L9 4L10 4L10 3ZM15 8L15 9L16 9L16 12L15 12L15 13L14 13L14 14L13 14L13 15L14 15L14 14L16 14L16 15L15 15L15 17L14 17L14 16L12 16L12 17L13 17L13 18L15 18L15 17L16 17L16 19L15 19L15 20L18 20L18 18L21 18L21 17L18 17L18 16L17 16L17 13L18 13L18 15L20 15L20 16L21 16L21 15L20 15L20 14L19 14L19 13L18 13L18 12L17 12L17 10L19 10L19 11L20 11L20 9L21 9L21 8L17 8L17 9L16 9L16 8ZM4 9L4 10L2 10L2 11L1 11L1 12L2 12L2 11L3 11L3 12L5 12L5 11L6 11L6 12L9 12L9 11L8 11L8 10L7 10L7 9L6 9L6 10L5 10L5 9ZM4 10L4 11L5 11L5 10ZM6 10L6 11L7 11L7 10ZM16 12L16 13L17 13L17 12ZM20 12L20 13L21 13L21 12ZM10 14L10 15L8 15L8 17L9 17L9 18L10 18L10 19L8 19L8 21L11 21L11 20L13 20L13 21L14 21L14 19L11 19L11 18L10 18L10 17L9 17L9 16L10 16L10 15L11 15L11 14ZM16 16L16 17L17 17L17 16ZM20 20L20 21L21 21L21 20ZM0 0L0 7L7 7L7 0ZM1 1L1 6L6 6L6 1ZM2 2L2 5L5 5L5 2ZM14 0L14 7L21 7L21 0ZM15 1L15 6L20 6L20 1ZM16 2L16 5L19 5L19 2ZM0 14L0 21L7 21L7 14ZM1 15L1 20L6 20L6 15ZM2 16L2 19L5 19L5 16Z" fill="#000000"/></g></g></svg>
